<?xml version="1.0"?>
<svg xmlns="http://www.w3.org/2000/svg" xmlns:xlink="http://www.w3.org/1999/xlink" xmlns:svgjs="http://svgjs.com/svgjs" version="1.1" width="512" height="512" x="0" y="0" viewBox="0 0 480 480" style="enable-background:new 0 0 512 512" xml:space="preserve" class=""><g>
<g xmlns="http://www.w3.org/2000/svg">
	<g>
		<path d="M480,172v-16h-32V44c0.001-4.417-3.579-7.999-7.996-8c-0.001,0-0.003,0-0.004,0H264c-4.417-0.001-7.999,3.579-8,7.996    c0,0.001,0,0.003,0,0.004v112h-24V44c0.001-4.417-3.579-7.999-7.996-8c-0.001,0-0.003,0-0.004,0H48    c-4.417-0.001-7.999,3.579-8,7.996c0,0.001,0,0.003,0,0.004v112H16V4H0v464c-0.001,4.417,3.579,7.999,7.996,8    c0.001,0,0.003,0,0.004,0h472v-16h-32V348c0.001-4.417-3.579-7.999-7.996-8c-0.001,0-0.003,0-0.004,0H264    c-4.417-0.001-7.999,3.579-8,7.996c0,0.001,0,0.003,0,0.004v112h-24V348c0.001-4.417-3.579-7.999-7.996-8    c-0.001,0-0.003,0-0.004,0H48c-4.417-0.001-7.999,3.579-8,7.996c0,0.001,0,0.003,0,0.004v112H16V324h464v-16h-32V196    c0.001-4.417-3.579-7.999-7.996-8c-0.001,0-0.003,0-0.004,0H264c-4.417-0.001-7.999,3.579-8,7.996c0,0.001,0,0.003,0,0.004v112    h-24V196c0.001-4.417-3.579-7.999-7.996-8c-0.001,0-0.003,0-0.004,0H48c-4.417-0.001-7.999,3.579-8,7.996c0,0.001,0,0.003,0,0.004    v112H16V172H480z M336,52h32v32h-32V52z M272,52h48v40c-0.001,4.417,3.579,7.999,7.996,8c0.001,0,0.003,0,0.004,0h48    c4.417,0.001,7.999-3.579,8-7.996c0-0.001,0-0.003,0-0.004V52h48v104H272V52z M120,52h32v32h-32V52z M56,52h48v40    c-0.001,4.417,3.579,7.999,7.996,8c0.001,0,0.003,0,0.004,0h48c4.417,0.001,7.999-3.579,8-7.996c0-0.001,0-0.003,0-0.004V52h48    v104H56V52z M336,356h32v32h-32V356z M272,356h48v40c-0.001,4.417,3.579,7.999,7.996,8c0.001,0,0.003,0,0.004,0h48    c4.417,0.001,7.999-3.579,8-7.996c0-0.001,0-0.003,0-0.004v-40h48v104H272V356z M120,356h32v32h-32V356z M56,356h48v40    c-0.001,4.417,3.579,7.999,7.996,8c0.001,0,0.003,0,0.004,0h48c4.417,0.001,7.999-3.579,8-7.996c0-0.001,0-0.003,0-0.004v-40h48    v104H56V356z M336,212h32v32h-32V212z M272,204h48v48c-0.001,4.417,3.579,7.999,7.996,8c0.001,0,0.003,0,0.004,0h48    c4.417,0.001,7.999-3.579,8-7.996c0-0.001,0-0.003,0-0.004v-48h48v104H272V204z M120,204h32v32h-32V204z M56,204h48v40    c-0.001,4.417,3.579,7.999,7.996,8c0.001,0,0.003,0,0.004,0h48c4.417,0.001,7.999-3.579,8-7.996c0-0.001,0-0.003,0-0.004v-40h48    v104H56V204z" fill="#ffffff" data-original="#000000" style="" class=""/>
	</g>
</g>
<g xmlns="http://www.w3.org/2000/svg">
</g>
<g xmlns="http://www.w3.org/2000/svg">
</g>
<g xmlns="http://www.w3.org/2000/svg">
</g>
<g xmlns="http://www.w3.org/2000/svg">
</g>
<g xmlns="http://www.w3.org/2000/svg">
</g>
<g xmlns="http://www.w3.org/2000/svg">
</g>
<g xmlns="http://www.w3.org/2000/svg">
</g>
<g xmlns="http://www.w3.org/2000/svg">
</g>
<g xmlns="http://www.w3.org/2000/svg">
</g>
<g xmlns="http://www.w3.org/2000/svg">
</g>
<g xmlns="http://www.w3.org/2000/svg">
</g>
<g xmlns="http://www.w3.org/2000/svg">
</g>
<g xmlns="http://www.w3.org/2000/svg">
</g>
<g xmlns="http://www.w3.org/2000/svg">
</g>
<g xmlns="http://www.w3.org/2000/svg">
</g>
</g></svg>
