<?xml version="1.0"?>
<svg xmlns="http://www.w3.org/2000/svg" xmlns:xlink="http://www.w3.org/1999/xlink" xmlns:svgjs="http://svgjs.com/svgjs" version="1.1" width="512" height="512" x="0" y="0" viewBox="0 0 512 512" style="enable-background:new 0 0 512 512" xml:space="preserve"><g>
<g xmlns="http://www.w3.org/2000/svg" transform="translate(-1 -1)">
	<g>
		<g>
			<path d="M218.592,52.2c4.71,0,8.533-3.814,8.533-8.533V9.533c0-4.719-3.823-8.533-8.533-8.533s-8.533,3.814-8.533,8.533v34.133     C210.059,48.386,213.882,52.2,218.592,52.2z" fill="#ffffff" data-original="#000000" style=""/>
			<path d="M269.792,94.867c0,4.719,3.823,8.533,8.533,8.533h34.133c4.71,0,8.533-3.814,8.533-8.533s-3.823-8.533-8.533-8.533     h-34.133C273.615,86.333,269.792,90.148,269.792,94.867z" fill="#ffffff" data-original="#000000" style=""/>
			<path d="M116.192,103.4h34.133c4.71,0,8.533-3.814,8.533-8.533s-3.823-8.533-8.533-8.533h-34.133     c-4.71,0-8.533,3.814-8.533,8.533S111.482,103.4,116.192,103.4z" fill="#ffffff" data-original="#000000" style=""/>
			<path d="M261.259,69.267c2.185,0,4.369-0.836,6.033-2.5l25.6-25.6c3.337-3.337,3.337-8.73,0-12.066     c-3.337-3.336-8.73-3.336-12.066,0l-25.6,25.6c-3.337,3.337-3.337,8.73,0,12.066C256.89,68.43,259.074,69.267,261.259,69.267z" fill="#ffffff" data-original="#000000" style=""/>
			<path d="M161.359,66.767c1.664,1.664,3.849,2.5,6.033,2.5c2.185,0,4.369-0.836,6.033-2.5c3.337-3.336,3.337-8.73,0-12.066     l-25.6-25.6c-3.337-3.336-8.73-3.336-12.066,0c-3.337,3.337-3.337,8.73,0,12.066L161.359,66.767z" fill="#ffffff" data-original="#000000" style=""/>
			<path d="M431.943,358.931L431.926,257c0-20.139-16.444-42.667-38.451-42.667c-8.081,0-15.326,2.953-21.282,7.654v-7.637     c0.017-11.452-4.992-23.313-13.414-31.753c-7.1-7.117-15.966-11.034-24.977-11.034c-8.055,0-15.369,3.038-21.402,7.876     c-0.179-9.847-4.062-20.002-10.718-27.964c-7.407-8.858-17.493-13.943-27.674-13.943c-8.013,0-15.292,3.021-21.308,7.834     l-0.008-33.434c0-20.139-16.435-42.667-38.417-42.667c-21.973,0-38.383,22.528-38.383,42.667v129.502     c-7.714-15.846-17.476-31.027-28.117-41.668c-13.824-13.815-41.088-14.805-56.098-2.022c-4.873,4.156-19.26,19.84,0.478,47.181     c17.442,24.166,26.052,76.194,31.198,107.281l1.442,8.627c10.82,63.633,44.971,84.079,59.665,90.044v53.589     c0,4.719,3.823,8.533,8.533,8.533h204.8c4.71,0,8.533-3.814,8.533-8.525l0.051-57.003c3.712-4.847,6.844-8.627,9.464-11.81     C432.054,416.027,432.054,413.877,431.943,358.931z M278.326,419.133h25.6c4.71,0,8.533,3.814,8.533,8.533     c0,4.719-3.823,8.533-8.533,8.533h-25.6c-4.71,0-8.533-3.814-8.533-8.533C269.792,422.948,273.615,419.133,278.326,419.133z      M312.459,470.333h-42.667c-4.71,0-8.533-3.814-8.533-8.533s3.823-8.533,8.533-8.533h42.667c4.71,0,8.533,3.814,8.533,8.533     S317.169,470.333,312.459,470.333z" fill="#ffffff" data-original="#000000" style=""/>
		</g>
	</g>
</g>
<g xmlns="http://www.w3.org/2000/svg">
</g>
<g xmlns="http://www.w3.org/2000/svg">
</g>
<g xmlns="http://www.w3.org/2000/svg">
</g>
<g xmlns="http://www.w3.org/2000/svg">
</g>
<g xmlns="http://www.w3.org/2000/svg">
</g>
<g xmlns="http://www.w3.org/2000/svg">
</g>
<g xmlns="http://www.w3.org/2000/svg">
</g>
<g xmlns="http://www.w3.org/2000/svg">
</g>
<g xmlns="http://www.w3.org/2000/svg">
</g>
<g xmlns="http://www.w3.org/2000/svg">
</g>
<g xmlns="http://www.w3.org/2000/svg">
</g>
<g xmlns="http://www.w3.org/2000/svg">
</g>
<g xmlns="http://www.w3.org/2000/svg">
</g>
<g xmlns="http://www.w3.org/2000/svg">
</g>
<g xmlns="http://www.w3.org/2000/svg">
</g>
</g></svg>
